<svg width="63" height="62" viewBox="0 0 63 62" fill="none" xmlns="http://www.w3.org/2000/svg">
<rect width="63" height="62" rx="5" fill="#2B71F0"/>
<circle cx="31" cy="35" r="3" stroke="white" stroke-width="1.5"/>
<path d="M31 38.2597L28.7371 40.4292C28.4131 40.7399 28.251 40.8952 28.1138 40.949C27.8011 41.0715 27.4543 40.9666 27.2898 40.6999C27.2176 40.5829 27.1951 40.3718 27.1501 39.9495C27.1247 39.7111 27.112 39.5919 27.0735 39.4921C26.9871 39.2686 26.8058 39.0947 26.5727 39.012C26.4685 38.975 26.3442 38.9629 26.0955 38.9385C25.6551 38.8954 25.4349 38.8738 25.3128 38.8046C25.0346 38.6469 24.9253 38.3144 25.0531 38.0146C25.1091 37.883 25.2712 37.7277 25.5952 37.417L27.0735 35.9998L28.1138 34.9595" stroke="white" stroke-width="1.5"/>
<path d="M31 38.2597L33.2629 40.4291C33.5869 40.7398 33.749 40.8952 33.8862 40.9489C34.1989 41.0714 34.5457 40.9666 34.7102 40.6999C34.7824 40.5828 34.8049 40.3717 34.8499 39.9495C34.8753 39.7111 34.888 39.5919 34.9265 39.4921C35.0129 39.2686 35.1942 39.0947 35.4273 39.012C35.5315 38.975 35.6558 38.9628 35.9045 38.9385C36.3449 38.8953 36.5651 38.8738 36.6872 38.8046C36.9654 38.6469 37.0747 38.3143 36.9469 38.0146C36.8909 37.883 36.7288 37.7277 36.4048 37.417L34.9265 35.9998L34 35.0732" stroke="white" stroke-width="1.5"/>
<path d="M36.3197 36.9957C38.2921 36.9748 39.3915 36.8512 40.1213 36.1213C41 35.2426 41 33.8284 41 31V27C41 24.1716 41 22.7574 40.1213 21.8787C39.2426 21 37.8284 21 35 21L27 21C24.1716 21 22.7574 21 21.8787 21.8787C21 22.7574 21 24.1716 21 27L21 31C21 33.8284 21 35.2426 21.8787 36.1213C22.6471 36.8897 23.825 36.9862 26 36.9983" stroke="white" stroke-width="1.5"/>
<path d="M28 25H34" stroke="white" stroke-width="1.5" stroke-linecap="round"/>
<path d="M26 28.5H36" stroke="white" stroke-width="1.5" stroke-linecap="round"/>
</svg>
