<svg width="63" height="62" viewBox="0 0 63 62" fill="none" xmlns="http://www.w3.org/2000/svg">
<rect width="63" height="62" rx="5" fill="#2B71F0"/>
<path d="M41 29.5V31C41 35.714 41 38.0711 39.5355 39.5355C38.0711 41 35.714 41 31 41C26.286 41 23.9289 41 22.4645 39.5355C21 38.0711 21 35.714 21 31C21 26.286 21 23.9289 22.4645 22.4645C23.9289 21 26.286 21 31 21H32.5" stroke="white" stroke-width="1.5" stroke-linecap="round"/>
<circle cx="38" cy="24" r="3" stroke="white" stroke-width="1.5"/>
<path d="M26 33L28.2929 30.7071C28.6834 30.3166 29.3166 30.3166 29.7071 30.7071L31.2929 32.2929C31.6834 32.6834 32.3166 32.6834 32.7071 32.2929L36 29M36 29V31.5M36 29H33.5" stroke="white" stroke-width="1.5" stroke-linecap="round" stroke-linejoin="round"/>
</svg>
