<svg width="63" height="62" viewBox="0 0 63 62" fill="none" xmlns="http://www.w3.org/2000/svg">
<rect width="63" height="62" rx="5" fill="#2B71F0"/>
<path d="M30.1459 26.0225C30.5259 25.3408 30.7159 25 31 25C31.2841 25 31.4741 25.3408 31.8541 26.0225L31.9524 26.1989C32.0603 26.3926 32.1143 26.4894 32.1985 26.5533C32.2827 26.6172 32.3875 26.641 32.5972 26.6884L32.7881 26.7316C33.526 26.8986 33.895 26.982 33.9828 27.2643C34.0706 27.5466 33.819 27.8407 33.316 28.429L33.1858 28.5812C33.0429 28.7483 32.9714 28.8319 32.9392 28.9353C32.9071 29.0387 32.9179 29.1502 32.9395 29.3733L32.9592 29.5763C33.0352 30.3612 33.0733 30.7536 32.8435 30.9281C32.6136 31.1025 32.2682 30.9435 31.5773 30.6254L31.3986 30.5431C31.2022 30.4527 31.1041 30.4075 31 30.4075C30.8959 30.4075 30.7978 30.4527 30.6014 30.5431L30.4227 30.6254C29.7318 30.9435 29.3864 31.1025 29.1565 30.9281C28.9267 30.7536 28.9648 30.3612 29.0408 29.5763L29.0605 29.3733C29.0821 29.1502 29.0929 29.0387 29.0608 28.9353C29.0286 28.8319 28.9571 28.7483 28.8142 28.5812L28.684 28.429C28.181 27.8407 27.9294 27.5466 28.0172 27.2643C28.105 26.982 28.474 26.8986 29.2119 26.7316L29.4028 26.6884C29.6125 26.641 29.7173 26.6172 29.8015 26.5533C29.8857 26.4894 29.9397 26.3926 30.0476 26.1989L30.1459 26.0225Z" stroke="white" stroke-width="1.5"/>
<path d="M38 28C38 31.866 34.866 35 31 35C27.134 35 24 31.866 24 28C24 24.134 27.134 21 31 21C34.866 21 38 24.134 38 28Z" stroke="white" stroke-width="1.5"/>
<path d="M31 35.0678L27.2285 38.9728C26.6884 39.5321 26.4184 39.8117 26.1897 39.9084C25.6685 40.1289 25.0904 39.9402 24.8163 39.4602C24.696 39.2495 24.6585 38.8695 24.5835 38.1095C24.5412 37.6804 24.52 37.4658 24.4558 37.2861C24.3119 36.8838 24.0097 36.5708 23.6211 36.4219C23.4475 36.3554 23.2403 36.3335 22.8259 36.2896C22.0919 36.212 21.7249 36.1732 21.5214 36.0486C21.0577 35.7648 20.8755 35.1662 21.0884 34.6266C21.1819 34.3898 21.4519 34.1102 21.9921 33.5509L24.4558 31" stroke="white" stroke-width="1.5"/>
<path d="M31 35.0678L34.7715 38.9728C35.3116 39.5321 35.5816 39.8117 35.8103 39.9084C36.3315 40.1289 36.9096 39.9402 37.1837 39.4602C37.304 39.2495 37.3415 38.8695 37.4165 38.1095C37.4588 37.6804 37.48 37.4658 37.5442 37.2861C37.6881 36.8838 37.9903 36.5708 38.3789 36.4219C38.5525 36.3554 38.7597 36.3335 39.1741 36.2896C39.9081 36.212 40.2751 36.1732 40.4786 36.0486C40.9423 35.7648 41.1245 35.1662 40.9116 34.6266C40.8181 34.3898 40.5481 34.1102 40.0079 33.5509L37.5442 31" stroke="white" stroke-width="1.5"/>
</svg>
