<svg width="63" height="62" viewBox="0 0 63 62" fill="none" xmlns="http://www.w3.org/2000/svg">
<rect width="63" height="62" rx="5" fill="#2B71F0"/>
<path d="M22 31C22 34.7712 22 38.6569 23.318 39.8284C24.636 41 26.7574 41 31 41C35.2426 41 37.364 41 38.682 39.8284C40 38.6569 40 34.7712 40 31" stroke="white" stroke-width="1.5"/>
<path d="M33.6603 33.2019L39.8579 31.3426C40.2688 31.2194 40.4743 31.1577 40.6264 31.0355C40.7592 30.9288 40.8626 30.7898 40.9266 30.6319C41 30.4511 41 30.2366 41 29.8077C41 28.1203 41 27.2766 40.6703 26.6327C40.3834 26.0724 39.9276 25.6166 39.3673 25.3297C38.7234 25 37.8797 25 36.1923 25H25.8077C24.1203 25 23.2766 25 22.6327 25.3297C22.0724 25.6166 21.6166 26.0724 21.3297 26.6327C21 27.2766 21 28.1203 21 29.8077C21 30.2366 21 30.4511 21.0734 30.6319C21.1374 30.7898 21.2408 30.9288 21.3736 31.0355C21.5257 31.1577 21.7312 31.2194 22.1421 31.3426L28.3397 33.2019" stroke="white" stroke-width="1.5"/>
<path d="M33 31.5H29C28.7239 31.5 28.5 31.7239 28.5 32V34.1615C28.5 34.3659 28.6245 34.5498 28.8143 34.6257L29.5144 34.9058C30.4681 35.2872 31.5319 35.2872 32.4856 34.9058L33.1857 34.6257C33.3755 34.5498 33.5 34.3659 33.5 34.1615V32C33.5 31.7239 33.2761 31.5 33 31.5Z" stroke="white" stroke-width="1.5" stroke-linecap="round"/>
<path d="M28.1709 23C28.5827 21.8348 29.694 21 31.0002 21C32.3064 21 33.4177 21.8348 33.8295 23" stroke="white" stroke-width="1.5" stroke-linecap="round"/>
</svg>
