<svg width="42" height="42" viewBox="0 0 42 42" fill="none" xmlns="http://www.w3.org/2000/svg">
<circle cx="21" cy="21" r="20.4615" fill="#2B71F0" stroke="#0E225A" stroke-width="1.07692"/>
<path d="M20.8117 26.769V20.2213C20.8117 19.9227 20.8117 19.6183 20.8117 19.3081C20.8232 18.9865 20.8289 18.6591 20.8289 18.326C20.4499 18.6706 20.0306 18.975 19.5711 19.2392C19.1116 19.4919 18.6291 19.6642 18.1237 19.7561L17.848 17.3093C18.1467 17.2864 18.4626 17.2117 18.7957 17.0853C19.1403 16.959 19.4792 16.8039 19.8123 16.6201C20.1454 16.4363 20.4441 16.241 20.7083 16.0343C20.9725 15.816 21.1735 15.6035 21.3114 15.3967H23.672V26.769H20.8117Z" fill="white"/>
</svg>
