<svg width="42" height="42" viewBox="0 0 42 42" fill="none" xmlns="http://www.w3.org/2000/svg">
<circle cx="21" cy="21" r="20.4615" fill="#2B71F0" stroke="#0E225A" stroke-width="1.07692"/>
<path d="M17.6326 26.769V24.8737C18.609 24.2648 19.4418 23.6962 20.1311 23.1678C20.8203 22.6394 21.3774 22.1397 21.8024 21.6687C22.239 21.1978 22.5606 20.7498 22.7674 20.3247C22.9741 19.8997 23.0775 19.4862 23.0775 19.0841C23.0775 18.6476 22.9454 18.2858 22.6812 17.9986C22.4285 17.6999 22.0494 17.5506 21.544 17.5506C21.0041 17.5506 20.5848 17.7516 20.2861 18.1537C19.9875 18.5442 19.8266 19.1186 19.8037 19.8767L17.2707 19.1013C17.2937 18.2513 17.4947 17.5391 17.8738 16.9647C18.2644 16.3904 18.7928 15.9596 19.4591 15.6724C20.1253 15.3738 20.8835 15.2244 21.7335 15.2244C22.4802 15.2244 23.1235 15.3336 23.6634 15.5518C24.2147 15.7586 24.6627 16.04 25.0074 16.3961C25.352 16.7407 25.6047 17.1313 25.7655 17.5678C25.9378 17.9928 26.024 18.4293 26.024 18.8773C26.024 19.6125 25.8344 20.3018 25.4554 20.945C25.0763 21.5768 24.5249 22.1914 23.8012 22.7887C23.089 23.3746 22.2217 23.9662 21.1994 24.5635V24.5807C21.3946 24.5692 21.6244 24.5578 21.8886 24.5463C22.1528 24.5348 22.4285 24.529 22.7157 24.529C23.0028 24.5176 23.2613 24.5118 23.4911 24.5118H26.1618V26.769H17.6326Z" fill="white"/>
</svg>
