<svg width="42" height="42" viewBox="0 0 42 42" fill="none" xmlns="http://www.w3.org/2000/svg">
<circle cx="21" cy="21" r="20.4615" fill="#2B71F0" stroke="#0E225A" stroke-width="1.07692"/>
<path d="M21.8104 26.9414C20.5928 26.9414 19.5762 26.7059 18.7606 26.2349C17.9565 25.7524 17.3994 25.0517 17.0892 24.1327L19.8117 22.961C19.8691 23.3746 19.9725 23.7077 20.1218 23.9604C20.2827 24.2017 20.4952 24.3797 20.7594 24.4946C21.0236 24.598 21.3337 24.6497 21.6898 24.6497C22.0115 24.6497 22.2814 24.598 22.4997 24.4946C22.7294 24.3797 22.9075 24.2189 23.0338 24.0121C23.1602 23.8054 23.2234 23.5584 23.2234 23.2712C23.2234 22.9725 23.1602 22.7313 23.0338 22.5475C22.919 22.3637 22.7467 22.2316 22.5169 22.1512C22.2987 22.0708 22.0287 22.0306 21.7071 22.0306C21.5577 22.0306 21.4199 22.0363 21.2935 22.0478C21.1672 22.0478 21.0236 22.0593 20.8628 22.0823V20.1524C20.9547 20.1639 21.0466 20.1754 21.1384 20.1869C21.2303 20.1869 21.3395 20.1869 21.4658 20.1869C22.0057 20.1869 22.3906 20.0778 22.6203 19.8595C22.8615 19.6298 22.9821 19.2737 22.9821 18.7912C22.9821 18.3777 22.8615 18.0618 22.6203 17.8435C22.3906 17.6252 22.0632 17.5161 21.6381 17.5161C21.1901 17.5161 20.8226 17.6367 20.5354 17.878C20.2482 18.1077 20.0644 18.504 19.984 19.0669L17.3821 18.1709C17.5085 17.5391 17.7784 17.0049 18.192 16.5684C18.6055 16.1319 19.1224 15.7988 19.7428 15.569C20.3746 15.3393 21.0695 15.2244 21.8277 15.2244C22.7007 15.2244 23.4359 15.3508 24.0332 15.6035C24.6306 15.8562 25.0843 16.2181 25.3944 16.689C25.7046 17.16 25.8597 17.7114 25.8597 18.3432C25.8597 18.8371 25.7793 19.2507 25.6184 19.5838C25.4691 19.9169 25.2738 20.1869 25.0326 20.3937C24.8029 20.6004 24.5674 20.7555 24.3261 20.8589C24.0849 20.9508 23.8839 21.0082 23.7231 21.0312V21.0829C23.9298 21.0829 24.1653 21.1231 24.4295 21.2035C24.6937 21.2839 24.9522 21.416 25.2049 21.5998C25.4576 21.7721 25.6644 22.0134 25.8252 22.3235C25.9975 22.6337 26.0837 23.0185 26.0837 23.478C26.0837 24.1902 25.8941 24.8047 25.5151 25.3217C25.1475 25.8386 24.642 26.2406 23.9988 26.5278C23.3555 26.8035 22.626 26.9414 21.8104 26.9414Z" fill="white"/>
</svg>
