<svg width="42" height="42" viewBox="0 0 42 42" fill="none" xmlns="http://www.w3.org/2000/svg">
<circle cx="21" cy="21" r="20.4615" fill="#2B71F0" stroke="#0E225A" stroke-width="1.07692"/>
<path d="M21.9505 26.769V24.2706H16.4022V22.4097C16.5056 22.2259 16.6377 22.0019 16.7985 21.7377C16.9708 21.4735 17.1718 21.169 17.4016 20.8244L21.1062 15.3967H24.5696V22.2374H26.3099V24.2706H24.5696V26.769H21.9505ZM18.78 22.2374H21.9849V18.7912C21.9849 18.5615 21.9907 18.326 22.0022 18.0847C22.0137 17.832 22.0251 17.5793 22.0366 17.3266H22.0022C21.8873 17.5678 21.7495 17.8205 21.5886 18.0847C21.4393 18.3375 21.2957 18.5672 21.1579 18.774L19.1419 21.7204C19.0844 21.8123 19.027 21.8985 18.9696 21.9789C18.9121 22.0593 18.8489 22.1455 18.78 22.2374Z" fill="white"/>
</svg>
