<svg width="42" height="42" viewBox="0 0 42 42" fill="none" xmlns="http://www.w3.org/2000/svg">
<circle cx="21" cy="21" r="20.4615" fill="#2B71F0" stroke="#0E225A" stroke-width="1.07692"/>
<path d="M21.6361 26.9414C20.6482 26.9414 19.7867 26.7518 19.0515 26.3727C18.3278 25.9822 17.719 25.3504 17.225 24.4774L19.8269 23.185C19.9532 23.6445 20.1543 24.0121 20.43 24.2878C20.7171 24.5635 21.1422 24.7014 21.705 24.7014C22.0611 24.7014 22.3656 24.6382 22.6183 24.5118C22.871 24.3855 23.0663 24.2017 23.2041 23.9604C23.3535 23.7077 23.4281 23.4033 23.4281 23.0472C23.4281 22.7026 23.3592 22.4154 23.2214 22.1857C23.095 21.9559 22.9055 21.7836 22.6527 21.6687C22.4 21.5424 22.0841 21.4792 21.705 21.4792C21.4294 21.4792 21.1824 21.5079 20.9641 21.5654C20.7459 21.6113 20.5448 21.686 20.361 21.7894C20.1887 21.8812 20.0279 22.0019 19.8786 22.1512L17.6386 21.7377L18.3623 15.3967H25.5303V17.6884H20.5161L20.2232 19.9629L20.1715 20.2386H20.1887C20.4185 19.9744 20.7401 19.7733 21.1537 19.6355C21.5672 19.4977 22.0267 19.4287 22.5321 19.4287C23.2788 19.4287 23.9163 19.5781 24.4447 19.8767C24.9731 20.1754 25.3809 20.5832 25.6681 21.1001C25.9553 21.617 26.0989 22.2086 26.0989 22.8749C26.0989 23.5756 25.9783 24.1844 25.737 24.7014C25.5073 25.2068 25.1799 25.6261 24.7549 25.9592C24.3414 26.2923 23.8646 26.5393 23.3247 26.7001C22.7963 26.8609 22.2335 26.9414 21.6361 26.9414Z" fill="white"/>
</svg>
